<svg id="SvgjsSvg1006" width="312" height="414" xmlns="http://www.w3.org/2000/svg" version="1.1" xmlns:xlink="http://www.w3.org/1999/xlink" xmlns:svgjs="http://svgjs.com/svgjs"><defs id="SvgjsDefs1007"></defs><g id="SvgjsG1008" transform="translate(109,51.5)"><path id="SvgjsPath1009" d="M 0 4Q 0 0 4 0L 96 0Q 100 0 100 4L 100 66Q 100 70 96 70L 4 70Q 0 70 0 66Z" stroke="#323232" stroke-width="2" fill-opacity="1" fill="#ffffff"></path><g id="SvgjsG1010"><text id="SvgjsText1011" font-family="微软雅黑" text-anchor="middle" font-size="13px" width="29" fill="#323232" font-weight="400" align="middle" anchor="middle" family="微软雅黑" size="13px" weight="400" font-style="" y="25.05" transform="rotate(0)"><tspan id="SvgjsTspan1012" dy="16" x="50"><tspan id="SvgjsTspan1013" style="text-decoration:;">flask</tspan></tspan></text></g></g><g id="SvgjsG1014" transform="translate(106,176.5)"><path id="SvgjsPath1015" d="M 0 4Q 0 0 4 0L 102 0Q 106 0 106 4L 106 64Q 106 68 102 68L 4 68Q 0 68 0 64Z" stroke="#323232" stroke-width="2" fill-opacity="1" fill="#ffffff"></path><g id="SvgjsG1016"><text id="SvgjsText1017" font-family="微软雅黑" text-anchor="middle" font-size="13px" width="80" fill="#323232" font-weight="400" align="middle" anchor="middle" family="微软雅黑" size="13px" weight="400" font-style="" y="24.05" transform="rotate(0)"><tspan id="SvgjsTspan1018" dy="16" x="53"><tspan id="SvgjsTspan1019" style="text-decoration:;">jupyter_client</tspan></tspan></text></g></g><g id="SvgjsG1020" transform="translate(109,305.5)"><path id="SvgjsPath1021" d="M 0 4Q 0 0 4 0L 96 0Q 100 0 100 4L 100 66Q 100 70 96 70L 4 70Q 0 70 0 66Z" stroke="#323232" stroke-width="2" fill-opacity="1" fill="#ffffff"></path><g id="SvgjsG1022"><text id="SvgjsText1023" font-family="微软雅黑" text-anchor="middle" font-size="13px" width="54" fill="#323232" font-weight="400" align="middle" anchor="middle" family="微软雅黑" size="13px" weight="400" font-style="" y="25.05" transform="rotate(0)"><tspan id="SvgjsTspan1024" dy="16" x="50"><tspan id="SvgjsTspan1025" style="text-decoration:;">ipykernel</tspan></tspan></text></g></g><g id="SvgjsG1026" transform="translate(242,25)"><path id="SvgjsPath1027" d="M 22.5 0L 45 22.5L 30.150000000000002 22.5L 30.150000000000002 364.5L 14.850000000000001 364.5L 14.850000000000001 22.5L 0 22.5L 22.5 0Z" stroke="#323232" stroke-width="2" fill-opacity="1" fill="#ffffff"></path><g id="SvgjsG1028"><text id="SvgjsText1029" font-family="微软雅黑" text-anchor="middle" font-size="13px" width="55" fill="#323232" font-weight="400" align="middle" anchor="middle" family="微软雅黑" size="13px" weight="400" font-style="" y="190.52499999999998" transform="rotate(0)"><tspan id="SvgjsTspan1030" dy="16" x="22.5"><tspan id="SvgjsTspan1031" style="text-decoration:;">response</tspan></tspan></text></g></g><g id="SvgjsG1032" transform="translate(25,25)"><path id="SvgjsPath1033" d="M 15.510000000000002 0L 31.490000000000002 0L 31.490000000000002 341L 47 341L 23.5 364.5L 0 341L 15.510000000000002 341L 15.510000000000002 0Z" stroke="#323232" stroke-width="2" fill-opacity="1" fill="#ffffff"></path><g id="SvgjsG1034"><text id="SvgjsText1035" font-family="微软雅黑" text-anchor="middle" font-size="13px" width="45" fill="#323232" font-weight="400" align="middle" anchor="middle" family="微软雅黑" size="13px" weight="400" font-style="" y="154.07500000000002" transform="rotate(0)"><tspan id="SvgjsTspan1036" dy="16" x="23.6"><tspan id="SvgjsTspan1037" style="text-decoration:;">request</tspan></tspan></text></g></g></svg>